<svg width="192" height="192" viewBox="0 0 192 192" fill="none" xmlns="http://www.w3.org/2000/svg">
  <rect width="192" height="192" rx="42" fill="#2563eb"/>
  <!-- Cap top -->
  <path d="M96 44L140 60L96 76L52 60Z" fill="white" opacity="0.2" stroke="white" stroke-width="2.5" stroke-linejoin="round"/>
  <path d="M96 50L128 62L96 73L64 62Z" stroke="white" stroke-width="0.8" opacity="0.3" fill="none"/>
  <!-- Center rosette -->
  <circle cx="96" cy="60" r="3.5" fill="white" opacity="0.4"/>
  <circle cx="96" cy="60" r="1.8" fill="white" opacity="0.7"/>
  <!-- Cap body -->
  <path d="M66 63V88C66 95 78 102 96 102C114 102 126 95 126 88V63" stroke="white" stroke-width="2.5" fill="none" stroke-linecap="round"/>
  <!-- Tassel cord -->
  <path d="M96 60Q99 70 128 74Q130 75 130 78" stroke="white" stroke-width="1.8" fill="none" stroke-linecap="round"/>
  <!-- Tassel knot -->
  <ellipse cx="130" cy="80" rx="3.5" ry="2.5" fill="white" opacity="0.6"/>
  <!-- Tassel threads -->
  <path d="M127.5 82Q127 93 126 108" stroke="white" stroke-width="1.3" opacity="0.5" fill="none" stroke-linecap="round"/>
  <path d="M129.5 82Q129 93 129 108" stroke="white" stroke-width="1" opacity="0.4" fill="none" stroke-linecap="round"/>
  <path d="M130 82Q130 93 130 108" stroke="white" stroke-width="1.3" opacity="0.5" fill="none" stroke-linecap="round"/>
  <path d="M131.5 82Q132 93 132 108" stroke="white" stroke-width="1" opacity="0.4" fill="none" stroke-linecap="round"/>
  <path d="M133.5 82Q134 93 135 108" stroke="white" stroke-width="1.3" opacity="0.5" fill="none" stroke-linecap="round"/>
  <!-- Sparkles -->
  <path d="M148 28L149.8 34L156 36L149.8 38L148 44L146.2 38L140 36L146.2 34Z" fill="white" opacity="0.85"/>
  <path d="M44 34L45.3 38L49 39.2L45.3 40.4L44 44.2L42.7 40.4L39 39.2L42.7 38Z" fill="white" opacity="0.45"/>
  <path d="M26 90L27.3 94L31 95L27.3 96L26 100L24.7 96L21 95L24.7 94Z" fill="white" opacity="0.4"/>
  <path d="M50 144L51 147L54 148L51 149L50 152L49 149L46 148L49 147Z" fill="white" opacity="0.3"/>
</svg>
